<svg xmlns="http://www.w3.org/2000/svg" viewBox="0 0 222.75 220.21"><defs><style>.cls-1{fill:#fff7c2;}.cls-2{fill:#ffdc31;}.cls-3{fill:#c1a106;}.cls-4{fill:#ddd;}</style></defs><g id="hills"><path class="cls-1" d="M109.27,206.48A94.51,94.51,0,1,1,203.78,112,94.62,94.62,0,0,1,109.27,206.48Zm0-174A79.51,79.51,0,1,0,188.78,112,79.59,79.59,0,0,0,109.27,32.47Z"/><polygon class="cls-1" points="115.28 109.88 79.84 106.2 65.29 73.67 86.2 44.81 121.64 48.48 136.18 81.02 115.28 109.88"/><polygon class="cls-2" points="164.68 145.65 129.23 141.98 114.69 109.45 135.59 80.59 171.04 84.26 185.58 116.79 164.68 145.65"/><polygon class="cls-3" points="108.83 170.88 73.39 167.2 58.85 134.67 79.75 105.81 115.19 109.48 129.74 142.01 108.83 170.88"/><path d="M72,67.28A10.72,10.72,0,0,0,70.51,67c3.44,1.5,5.49,4.58,4.71,7.35s-4.14,4.32-7.85,3.81a12,12,0,0,0,1.39.5c4.26,1.2,8.42-.37,9.3-3.51S76.22,68.48,72,67.28Z"/><path class="cls-2" d="M73.86,67.81c-.35-.1-.7-.17-1-.24,3.66,1.44,5.9,4.63,5.09,7.51s-4.39,4.43-8.26,3.74c.33.13.67.24,1,.34,4.25,1.2,8.42-.37,9.3-3.5S78.11,69,73.86,67.81Z"/><ellipse class="cls-2" cx="69.27" cy="72.64" rx="5.9" ry="6.31" transform="translate(-19.45 119.6) rotate(-74.25)"/><ellipse class="cls-4" cx="76.47" cy="64.52" rx="5.25" ry="2.53" transform="translate(-23.49 68.81) rotate(-42.61)"/><ellipse class="cls-4" cx="71.19" cy="63.03" rx="2.53" ry="5.25" transform="translate(-14.54 21.91) rotate(-15.9)"/><path d="M117.17,150.63a15.31,15.31,0,0,0-1.65.92c4.56-1.43,9.12-.19,10.69,3.14s-.37,7.63-4.38,10.24a13.57,13.57,0,0,0,1.76-.68c5.1-2.41,7.8-7.41,6-11.17S122.27,148.23,117.17,150.63Z"/><path class="cls-2" d="M119.44,149.56a12.73,12.73,0,0,0-1.21.65c4.73-1.69,9.56-.48,11.19,3s-.52,7.94-4.82,10.52c.42-.16.85-.33,1.27-.53,5.1-2.4,7.8-7.4,6-11.16S124.55,147.15,119.44,149.56Z"/><ellipse class="cls-2" cx="119.07" cy="158.06" rx="8.06" ry="7.53" transform="translate(-56.06 65.91) rotate(-25.26)"/><ellipse class="cls-4" cx="119.2" cy="144.2" rx="6.71" ry="3.24" transform="translate(-37.36 246.63) rotate(-83.61)"/><ellipse class="cls-4" cx="112.87" cy="147.19" rx="3.24" ry="6.71" transform="translate(-72.07 161.36) rotate(-56.9)"/></g></svg>