<svg xmlns="http://www.w3.org/2000/svg" viewBox="0 0 222.75 220.21"><defs><style>.cls-1{fill:#fff7c2;}.cls-2{fill:#ffc05a;}.cls-3{fill:#fcff94;}.cls-4{fill:#ede25f;}.cls-5{fill:#6860a0;}</style></defs><g id="hills"><path class="cls-1" d="M109.27,206.88a94.51,94.51,0,1,1,94.51-94.51A94.62,94.62,0,0,1,109.27,206.88Zm0-174a79.51,79.51,0,1,0,79.51,79.51A79.6,79.6,0,0,0,109.27,32.86Z"/><rect class="cls-2" x="44.97" y="49.46" width="128.61" height="128.61" rx="50.18"/><path class="cls-3" d="M134,87.22,96.17,152.75A37.87,37.87,0,0,0,134,87.22Z"/><path class="cls-4" d="M113.77,160.09a41,41,0,0,1-19-4.68L92,154,133,83l2.64,1.67a40.87,40.87,0,0,1-21.85,75.41Zm-13.37-8.66a34.38,34.38,0,0,0,13.37,2.66A34.87,34.87,0,0,0,135,91.54Z"/><path class="cls-4" d="M120.14,145.5a4.64,4.64,0,0,1-9.27,0c0-2.56,4.49-16.43,5-13.92C116.44,134.4,120.14,142.94,120.14,145.5Z"/><path class="cls-4" d="M131.15,135.92a4.64,4.64,0,0,1-6.84,6.26c-1.72-1.89-7.77-15.15-5.7-13.64C120.94,130.23,129.43,134,131.15,135.92Z"/><path class="cls-4" d="M140.31,108.26a4.63,4.63,0,1,0-5.73-7.28c-2,1.58-10.13,13.69-7.84,12.54C129.31,112.22,138.3,109.85,140.31,108.26Z"/><path class="cls-4" d="M139.25,121.63a4.63,4.63,0,1,0-.53-9.25c-2.55.14-16.14,5.41-13.61,5.77C128,118.57,136.69,121.78,139.25,121.63Z"/><path class="cls-4" d="M132.48,133.51a4.64,4.64,0,0,0,4.35-8.19c-2.26-1.2-16.61-3.74-14.64-2.11C124.42,125,130.22,132.31,132.48,133.51Z"/><path class="cls-5" d="M105.38,86a2,2,0,0,1-.46,1.21,2.14,2.14,0,0,1-1.36.77l-2-.05a31.61,31.61,0,0,0-4.14.49A25.34,25.34,0,0,0,90.51,91,20.72,20.72,0,0,0,84,96.68a24.58,24.58,0,0,0-4.22,8.77,40.72,40.72,0,0,0-1.36,9c0,.73-.05,1.69-.05,2.87s0,2.19.11,3c0,.48,0,.94.05,1.38a3.68,3.68,0,0,1,.06.66,46.17,46.17,0,0,0,1.21,7,25.62,25.62,0,0,0,3,7c.26.44.54.87.83,1.27a16.5,16.5,0,0,0,5.74,4.91A17.24,17.24,0,0,0,92.69,144a24.1,24.1,0,0,0,4.86.83l.14,0a.55.55,0,0,0,.19,0h2.43q1.48-.1,3-.33a7.52,7.52,0,0,0,1.27-.22,2.12,2.12,0,0,0,.44,0,2.93,2.93,0,0,1,1.11-.22,2,2,0,0,1,2,2,2.09,2.09,0,0,1-.33,1,2,2,0,0,1-1,.86,22.44,22.44,0,0,1-5.08.83.68.68,0,0,1-.27,0h-.33l-.17.06H97.38a26.38,26.38,0,0,1-6.12-1.11,21.19,21.19,0,0,1-6.12-3A21.89,21.89,0,0,1,79.67,139a25,25,0,0,1-2.48-4.69,33.75,33.75,0,0,1-1.49-4.75c-.22-.92-.41-1.82-.55-2.7s-.33-1.9-.44-2.82c0-.4-.08-.86-.11-1.38s-.06-1-.06-1.43l-.05-.61v-6.78l.11-2a42.68,42.68,0,0,1,1.76-9,29.71,29.71,0,0,1,4.75-9,22.59,22.59,0,0,1,4.27-4.25A25.77,25.77,0,0,1,90,86.74,28.84,28.84,0,0,1,100.86,84l2.32-.05a2.19,2.19,0,0,1,1.6.6A2,2,0,0,1,105.38,86Z"/><path class="cls-5" d="M75.12,65.58c.09.5.19,1,.29,1.48l.12.57c.17.85.33,1.7.5,2.55l.51,2.56c.1.55.21,1.09.32,1.64.06.3.13.61.18.92l.56-2.55c0-.11.05-.22.08-.33l.48-2.22.57-2.54.09-.47.06-.28,0-.09c0-.14.06-.27.08-.4.06-.32.14-.65.23-1a.28.28,0,0,1,.08-.12l.13-.07h.07a.3.3,0,0,1,.23.09.33.33,0,0,1,.09.23s0,.09,0,.24-.06.28-.09.43,0,.18-.05.24c-.14.59-.27,1.18-.4,1.78l0,.24c-.21,1-.43,2-.64,2.92-.06.28-.12.55-.19.82-.15.71-.31,1.41-.46,2.12q0,.18-.09.39v.1a2.68,2.68,0,0,0-.07.27l0,.16c0,.12,0,.24-.08.36l-.07.33-.21.92v0s0,0,0,0a.27.27,0,0,1-.13.13.37.37,0,0,1-.15.05.32.32,0,0,1-.21-.08.36.36,0,0,1-.12-.22h0a.22.22,0,0,0,0-.08l-.24-1.2-.24-1.21-.4-2-.17-.93-.58-2.93-.24-1.19-.24-1.2-.09-.53v-.08a.27.27,0,0,1,.11-.21.28.28,0,0,1,.19-.07.27.27,0,0,1,.23.11A.55.55,0,0,1,75.12,65.58Z"/><path class="cls-5" d="M81.9,67.22a.46.46,0,0,1-.11.29.39.39,0,0,1-.29.13.44.44,0,0,1-.22-.07.57.57,0,0,1-.15-.23l0,0v-.17a.4.4,0,0,1,.13-.26.41.41,0,0,1,.25-.08.38.38,0,0,1,.3.13A.48.48,0,0,1,81.9,67.22Zm0,1.92L82.21,76a.3.3,0,0,1-.1.25.37.37,0,0,1-.21.08.33.33,0,0,1-.22-.08.38.38,0,0,1-.1-.25l-.31-7a.25.25,0,0,1,.12-.21.28.28,0,0,1,.19-.07.33.33,0,0,1,.22.09A.38.38,0,0,1,81.9,69.14Z"/><path class="cls-5" d="M88.55,70.25a.28.28,0,0,1-.07.19.29.29,0,0,1-.19.12l-1.09.2-.77.13-.6.11v.81l0,.22v.07c0,.35.06.71.1,1.06a7.62,7.62,0,0,0,.2,1.06c0,.15.09.3.14.45s.08.18.13.27a.25.25,0,0,0,0,.07l0,.07a1.18,1.18,0,0,0,.56.5,1.54,1.54,0,0,0,.63.16,1.43,1.43,0,0,0,.62-.14,2.22,2.22,0,0,0,.62-.44.38.38,0,0,0,.09-.09L89.1,75a.24.24,0,0,1,.11-.06h.1a.3.3,0,0,1,.23.09.29.29,0,0,1,.09.21.41.41,0,0,1,0,.18l-.21.23a2.25,2.25,0,0,1-.24.21,2.64,2.64,0,0,1-.72.41,2.25,2.25,0,0,1-.71.12,2,2,0,0,1-.91-.22,1.85,1.85,0,0,1-.68-.53A1,1,0,0,0,86,75.5a.41.41,0,0,0-.07-.11c0-.08-.09-.16-.13-.25l0-.06a3.73,3.73,0,0,1-.15-.38,7.07,7.07,0,0,1-.29-1.27c-.06-.42-.1-.85-.12-1.27l0-.41v-.63l-.68.12-.32.05A.32.32,0,0,1,84,71.2a.29.29,0,0,1-.08-.22.3.3,0,0,1,0-.19.29.29,0,0,1,.19-.12l1.07-.2v-.54l0-.89v-.2a1.7,1.7,0,0,0,0-.22l0-.32c0-.12,0-.23,0-.34v-.1a.28.28,0,0,0,0-.09s0-.06,0-.09a.28.28,0,0,0,0-.09v-.13l0-.1a.37.37,0,0,1,.09-.27A.33.33,0,0,1,85.7,67a.26.26,0,0,1,.23.1.33.33,0,0,1,.09.22v.1a2.29,2.29,0,0,0,0,.33c0,.14,0,.26,0,.37,0,.32-.06.67-.07,1a.41.41,0,0,0,0,.11l-.05,1v.06l.17,0,.82-.15.94-.17.47-.08a.3.3,0,0,1,.23.09A.28.28,0,0,1,88.55,70.25Z"/><path class="cls-5" d="M95,69.25a.28.28,0,0,1,0,.13.18.18,0,0,1-.05.07s0,0,0,0l0,0,0,.07a.22.22,0,0,1,0,.08l.11,6.21v0a.32.32,0,0,1-.09.23.29.29,0,0,1-.23.1.32.32,0,0,1-.2-.07.31.31,0,0,1-.11-.21l0-.66,0,.07c0,.06-.08.13-.12.18a1.82,1.82,0,0,1-.48.48,1.77,1.77,0,0,1-.53.27,1.61,1.61,0,0,1-.52.08,1.4,1.4,0,0,1-.58-.12,1.59,1.59,0,0,1-.31-.17,2.06,2.06,0,0,1-.3-.29,1.65,1.65,0,0,1-.21-.3,3.35,3.35,0,0,1-.34-1,.13.13,0,0,0,0-.06.68.68,0,0,1,0-.14.9.9,0,0,1,0-.18c0-.07,0-.13,0-.19a.31.31,0,0,0,0-.09v-1a7.45,7.45,0,0,1,.2-1.3,4.14,4.14,0,0,1,.61-1.3,3.29,3.29,0,0,1,.44-.48,3.25,3.25,0,0,1,.49-.38,3.52,3.52,0,0,1,1.61-.48h.33a.41.41,0,0,1,.28.09A.3.3,0,0,1,95,69.25Zm-.63.31h0l-.27,0a3.28,3.28,0,0,0-1.1.38,2.51,2.51,0,0,0-.42.34,2.6,2.6,0,0,0-.35.42,3.56,3.56,0,0,0-.48,1.11,6.08,6.08,0,0,0-.16,1.1v.88a.18.18,0,0,0,0,.06.45.45,0,0,0,0,.11s0,.08,0,.11,0,.05,0,.08v.08c0,.14.07.3.12.49a1.93,1.93,0,0,0,.24.53,1.09,1.09,0,0,0,.46.38.49.49,0,0,0,.17.06h.36l.16,0,.2-.09,0,0a1.26,1.26,0,0,0,.42-.38,1.61,1.61,0,0,0,.23-.51c.05-.2.09-.4.13-.59l.06-.43a.57.57,0,0,1,0-.18l0-.34.05-.67,0-1V69.71s0,0,0-.08S94.33,69.58,94.33,69.56Z"/><path class="cls-5" d="M98.52,69.15V70.9a3.57,3.57,0,0,1,.44-.85,1.87,1.87,0,0,1,.6-.56,1.44,1.44,0,0,1,1.74.21,2.92,2.92,0,0,1,.65,1.16l0-.06a1.8,1.8,0,0,1,.08-.21l.16-.29a2.5,2.5,0,0,1,.26-.33,1.8,1.8,0,0,1,.2-.19l.2-.13a1.72,1.72,0,0,1,.8-.24H104a1.47,1.47,0,0,1,.27,0l.15,0,.21.1a1.72,1.72,0,0,1,.6.6,3.33,3.33,0,0,1,.32.7,7,7,0,0,1,.22,1,8.63,8.63,0,0,1,.1,1v1.3a1.62,1.62,0,0,1,0,.21c0,.13,0,.26,0,.39s0,.08,0,.12A11.12,11.12,0,0,1,105.7,76a.06.06,0,0,1,0,0l0,.06a.53.53,0,0,1-.12.1.43.43,0,0,1-.14,0,.29.29,0,0,1-.16-.06.24.24,0,0,1-.13-.15.09.09,0,0,1,0,0h0v-.12c0-.3.07-.61.09-.91a1.9,1.9,0,0,1,0-.25v-.44s0,0,0,0v0s0,0,0-.09v-.88l0-.3a9.39,9.39,0,0,0-.17-1.4,2.86,2.86,0,0,0-.5-1.19.28.28,0,0,0-.09-.1l-.1-.08a.85.85,0,0,0-.25-.13,1,1,0,0,0-.25,0,1.21,1.21,0,0,0-.62.15,1.43,1.43,0,0,0-.44.41,2.15,2.15,0,0,0-.28.59,4.51,4.51,0,0,0-.16.68c0,.05,0,.12,0,.21l0,.24a1.09,1.09,0,0,1,0,.13v.21l0,.39,0,.49v.81a.28.28,0,0,1-.09.22.33.33,0,0,1-.22.09.41.41,0,0,1-.17,0,.26.26,0,0,1-.13-.16.09.09,0,0,0,0-.05v0h0v-.09l-.06-.79v-.92c0-.14,0-.27-.06-.4a6.54,6.54,0,0,0-.22-1,2.63,2.63,0,0,0-.44-.87l-.1-.12a.35.35,0,0,0-.12-.08.67.67,0,0,0-.31-.12h-.19a.89.89,0,0,0-.53.26,1.92,1.92,0,0,0-.37.48,2.62,2.62,0,0,0-.2.45,5.62,5.62,0,0,0-.29,1,14.57,14.57,0,0,0-.31,2.54l0,.44v1a.3.3,0,0,1-.32.28.29.29,0,0,1-.22-.09.39.39,0,0,1-.09-.22l0-5.62V69.14a.29.29,0,0,1,.11-.21.36.36,0,0,1,.2-.06.32.32,0,0,1,.2.07A.27.27,0,0,1,98.52,69.15Z"/><path class="cls-5" d="M108.66,67.22a.41.41,0,0,1-.11.29.36.36,0,0,1-.28.13.44.44,0,0,1-.22-.07.71.71,0,0,1-.16-.23s0,0,0,0v-.17a.36.36,0,0,1,.13-.26.41.41,0,0,1,.24-.08.35.35,0,0,1,.3.13A.43.43,0,0,1,108.66,67.22Zm0,1.92L109,76a.34.34,0,0,1-.1.25.37.37,0,0,1-.22.08.35.35,0,0,1-.22-.08.38.38,0,0,1-.09-.25l-.32-7a.31.31,0,0,1,.12-.21.31.31,0,0,1,.2-.07.29.29,0,0,1,.21.09A.34.34,0,0,1,108.66,69.14Z"/><path class="cls-5" d="M112,69.16l0,2a5,5,0,0,1,.39-.76,2.63,2.63,0,0,1,.64-.7l.19-.12a1.81,1.81,0,0,1,.59-.26h0l.18,0,.19,0h.4a2.07,2.07,0,0,1,.42.08,1.78,1.78,0,0,1,.5.21,2.54,2.54,0,0,1,.49.41,3,3,0,0,1,.51.83,5.73,5.73,0,0,1,.36,1.51c0,.15,0,.3,0,.46a2.64,2.64,0,0,0,0,.28v1.27a15.5,15.5,0,0,1-.18,1.79s0,0,0,0a.17.17,0,0,0,0,.05.42.42,0,0,1-.13.11l-.13,0a.37.37,0,0,1-.17,0,.21.21,0,0,1-.13-.16,0,0,0,0,0,0,0v0h0v-.1a14,14,0,0,0,.18-1.7V73.08a8.3,8.3,0,0,0-.09-1,4.86,4.86,0,0,0-.25-1,3.4,3.4,0,0,0-.27-.54,1.59,1.59,0,0,0-.48-.49l-.23-.12-.22-.07-.25,0h-.27l-.3,0a1.38,1.38,0,0,0-.36.15,2.12,2.12,0,0,0-.75.77,4.47,4.47,0,0,0-.38.9,7.31,7.31,0,0,0-.28,1.21c-.05.4-.09.8-.11,1.21v.07h0v.28c0,.12,0,.27,0,.45s0,.31,0,.47v.63a.13.13,0,0,1,0,.06.27.27,0,0,1-.12.18.33.33,0,0,1-.18,0,.41.41,0,0,1-.19,0,.29.29,0,0,1-.12-.19l0-.32V74.44l-.1-5.29a.31.31,0,0,1,.11-.21.37.37,0,0,1,.2-.07.34.34,0,0,1,.2.08A.31.31,0,0,1,112,69.16Z"/></g></svg>