<svg xmlns="http://www.w3.org/2000/svg" viewBox="0 0 222.75 220.21"><defs><style>.cls-1{fill:#fff;}.cls-2{fill:#e2e2e2;}.cls-3{fill:#f9f9f9;}.cls-4{fill:none;stroke:#fff7c2;stroke-miterlimit:10;stroke-width:15px;}</style></defs><g id="hills"><rect class="cls-1" x="68.41" y="114.99" width="50.36" height="50.36"/><polygon class="cls-2" points="141.29 149.95 118.77 165.35 118.77 114.99 141.29 105.83 141.29 149.95"/><polygon class="cls-3" points="118.77 114.99 68.41 114.99 97.32 105.56 141.29 105.83 118.77 114.99"/><polygon class="cls-1" points="137.03 102.43 90.52 110.28 76.73 64.52 125.84 53.33 137.03 102.43"/><polygon class="cls-2" points="155.57 82.41 137.03 102.43 125.84 53.33 145.76 39.4 155.57 82.41"/><polygon class="cls-3" points="125.84 53.33 76.73 64.52 102.83 48.91 145.76 39.4 125.84 53.33"/><circle class="cls-4" cx="106.78" cy="110.1" r="86.92"/><line class="cls-4" x1="168.34" y1="60.83" x2="46.14" y2="175.76"/></g></svg>