<svg xmlns="http://www.w3.org/2000/svg" viewBox="0 0 222.75 220.21"><defs><style>.cls-1{fill:#fff7c2;}.cls-2{fill:#ede25f;}.cls-3{fill:#6860a0;}</style></defs><g id="hills"><path class="cls-1" d="M108.14,207.6a94.51,94.51,0,1,1,94.51-94.51A94.61,94.61,0,0,1,108.14,207.6Zm0-174a79.51,79.51,0,1,0,79.51,79.51A79.59,79.59,0,0,0,108.14,33.58Z"/><rect class="cls-2" x="43.84" y="48.79" width="128.61" height="128.61" rx="50.18"/><path class="cls-3" d="M104.3,99.06a1.45,1.45,0,0,1-.34.86,1.53,1.53,0,0,1-.95.54l-1.45,0a21.92,21.92,0,0,0-2.93.36,17.71,17.71,0,0,0-4.86,1.77,14.68,14.68,0,0,0-4.63,4,17.53,17.53,0,0,0-3,6.21,29.39,29.39,0,0,0-1,6.4c0,.52,0,1.2,0,2s0,1.55.07,2.15c0,.34,0,.67,0,1a2.49,2.49,0,0,1,0,.47,33,33,0,0,0,.86,4.94,18.3,18.3,0,0,0,2.11,4.94,10.71,10.71,0,0,0,.59.9,11.82,11.82,0,0,0,4.06,3.48,12.4,12.4,0,0,0,2.38,1,17.31,17.31,0,0,0,3.44.59l.1,0,.13,0h1.72c.71,0,1.42-.13,2.15-.24a6,6,0,0,0,.9-.15,1.65,1.65,0,0,0,.31,0,2,2,0,0,1,.78-.16,1.4,1.4,0,0,1,1.41,1.41,1.45,1.45,0,0,1-.24.72,1.4,1.4,0,0,1-.7.61,16,16,0,0,1-3.59.58.4.4,0,0,1-.2,0h-.23l-.12,0H98.63a19,19,0,0,1-4.33-.78A15.07,15.07,0,0,1,90,140.6a15.32,15.32,0,0,1-3.87-4,18.37,18.37,0,0,1-1.76-3.32,24.07,24.07,0,0,1-1-3.36q-.24-1-.39-1.92c-.13-.67-.23-1.34-.31-2,0-.29-.06-.61-.08-1s0-.7,0-1l0-.43v-4.81l.08-1.4A30.47,30.47,0,0,1,83.75,111a21.23,21.23,0,0,1,3.36-6.39,15.92,15.92,0,0,1,3-3,17.81,17.81,0,0,1,3.26-2,20.2,20.2,0,0,1,7.69-1.91l1.64,0a1.54,1.54,0,0,1,1.14.43A1.43,1.43,0,0,1,104.3,99.06Z"/><path class="cls-3" d="M128.94,113.63a1.14,1.14,0,0,1-.11.56,1.42,1.42,0,0,1-.24.34.13.13,0,0,0,0,.07s0,.07.08.12a2.52,2.52,0,0,1,.16.29,1,1,0,0,1,.08.37l.46,27.78v.19a1.38,1.38,0,0,1-.39,1,1.32,1.32,0,0,1-1,.47,1.47,1.47,0,0,1-.9-.33,1.34,1.34,0,0,1-.51-1l-.08-2.93-.15.31a9.47,9.47,0,0,1-.51.82,9.32,9.32,0,0,1-2.15,2.15,8.42,8.42,0,0,1-2.38,1.19,7.91,7.91,0,0,1-2.34.37,6.21,6.21,0,0,1-2.58-.54,6.67,6.67,0,0,1-1.41-.79,7.21,7.21,0,0,1-1.33-1.26,10.33,10.33,0,0,1-.93-1.35,15.35,15.35,0,0,1-1.53-4.3.93.93,0,0,0,0-.27,4.62,4.62,0,0,1-.11-.63c0-.23-.06-.51-.08-.82s-.06-.59-.08-.84,0-.38,0-.41v-4.37a29.54,29.54,0,0,1,.9-5.82,17.84,17.84,0,0,1,2.73-5.82,15.37,15.37,0,0,1,4.14-3.83,16,16,0,0,1,7.23-2.19l1.45,0a1.81,1.81,0,0,1,1.27.43A1.4,1.4,0,0,1,128.94,113.63Zm-2.81,1.4h-.08c-.41,0-.82.07-1.21.12a13.25,13.25,0,0,0-4.92,1.72,11.69,11.69,0,0,0-1.89,1.5,10.91,10.91,0,0,0-1.59,1.9,16.18,16.18,0,0,0-2.14,4.94,27.24,27.24,0,0,0-.71,4.94v3.93a1.57,1.57,0,0,0,0,.25,3.08,3.08,0,0,0,0,.51,3.08,3.08,0,0,1,0,.51,1.25,1.25,0,0,1,0,.35,1.78,1.78,0,0,1,0,.35,19.38,19.38,0,0,0,.51,2.19,8,8,0,0,0,1.09,2.36,5,5,0,0,0,2,1.74,4.6,4.6,0,0,0,.78.23l.28,0a1.56,1.56,0,0,0,.31,0l.12,0,.19,0,.35,0a1.7,1.7,0,0,0,.35-.06l.71-.15a7.21,7.21,0,0,0,.9-.43l.15-.08a6.05,6.05,0,0,0,1.88-1.68,7,7,0,0,0,1-2.29c.24-.89.43-1.79.59-2.67q.15-1,.27-1.92c0-.26.07-.53.12-.82,0-.52.1-1,.15-1.52l.24-3,.23-4.53V115.7c0-.11,0-.22,0-.35S126.11,115.11,126.13,115Z"/><path class="cls-3" d="M88.36,59.22a.4.4,0,0,1-.09.24.42.42,0,0,1-.28.16h-.41a7.89,7.89,0,0,0-.85.1,5.3,5.3,0,0,0-1.4.51A4.33,4.33,0,0,0,84,61.39a5.07,5.07,0,0,0-.86,1.78A8.44,8.44,0,0,0,82.87,65c0,.15,0,.35,0,.59s0,.44,0,.61a2.71,2.71,0,0,0,0,.29.57.57,0,0,1,0,.13,10.06,10.06,0,0,0,.25,1.42,5,5,0,0,0,.61,1.42,2.33,2.33,0,0,0,.17.26,3.39,3.39,0,0,0,1.16,1,4,4,0,0,0,.69.28,4.66,4.66,0,0,0,1,.17h.56l.62-.07.25,0h.09a.64.64,0,0,1,.23,0,.36.36,0,0,1,.28.12.38.38,0,0,1,.12.29.45.45,0,0,1-.06.2.46.46,0,0,1-.21.18,5.27,5.27,0,0,1-1,.17h-.89a5.09,5.09,0,0,1-1.24-.23,4.14,4.14,0,0,1-1.25-.61A4.42,4.42,0,0,1,83.13,70a5.24,5.24,0,0,1-.51-1,7.07,7.07,0,0,1-.3-1c0-.19-.08-.37-.11-.55s-.07-.39-.09-.57,0-.18,0-.29,0-.2,0-.29v-1.5l0-.41a9.87,9.87,0,0,1,.36-1.83,6.19,6.19,0,0,1,1-1.84,4.42,4.42,0,0,1,.87-.86,5.71,5.71,0,0,1,.94-.58,5.94,5.94,0,0,1,2.21-.55h.47a.42.42,0,0,1,.33.13A.4.4,0,0,1,88.36,59.22Z"/><path class="cls-3" d="M95.45,63.41a.27.27,0,0,1,0,.16l-.06.1s0,0,0,0a0,0,0,0,0,0,0,.39.39,0,0,1,0,.09.17.17,0,0,1,0,.1l.13,8v0a.44.44,0,0,1-.11.3.37.37,0,0,1-.29.13.39.39,0,0,1-.26-.1.37.37,0,0,1-.15-.27l0-.84,0,.09a1.76,1.76,0,0,1-.14.23,2.8,2.8,0,0,1-.62.62,2.28,2.28,0,0,1-.68.34,2.41,2.41,0,0,1-.68.11,1.7,1.7,0,0,1-.74-.16,2,2,0,0,1-.4-.22,2.28,2.28,0,0,1-.39-.37c-.11-.14-.2-.27-.27-.38a4.58,4.58,0,0,1-.43-1.24s0,0,0-.08a1.16,1.16,0,0,1,0-.18c0-.07,0-.14,0-.23a2.29,2.29,0,0,1,0-.25.87.87,0,0,1,0-.11V68.08a8.76,8.76,0,0,1,.25-1.67,5.44,5.44,0,0,1,.79-1.68,4,4,0,0,1,.56-.62,4.39,4.39,0,0,1,.63-.48A4.59,4.59,0,0,1,94.54,63H95a.53.53,0,0,1,.37.12A.43.43,0,0,1,95.45,63.41Zm-.81.4h0l-.35,0a3.91,3.91,0,0,0-1.42.5,3.39,3.39,0,0,0-.54.43,3.27,3.27,0,0,0-.46.55,4.49,4.49,0,0,0-.61,1.42A7.73,7.73,0,0,0,91,68.16v1.13l0,.07a.71.71,0,0,0,0,.14c0,.06,0,.11,0,.15a.31.31,0,0,1,0,.1.34.34,0,0,1,0,.1,5.56,5.56,0,0,0,.15.63,2.2,2.2,0,0,0,.31.68,1.41,1.41,0,0,0,.58.5l.23.07h.26l.1,0h.1l.2,0,.26-.12,0,0a1.75,1.75,0,0,0,.53-.49,2.05,2.05,0,0,0,.3-.65c.06-.26.12-.52.16-.77s.06-.37.08-.55a2,2,0,0,1,0-.24c0-.15,0-.29,0-.44l.07-.85.07-1.3V63.9A.64.64,0,0,1,94.64,63.81Z"/><path class="cls-3" d="M99.38,59.41,100,72.14a.4.4,0,0,1-.14.31.39.39,0,0,1-.54,0,.43.43,0,0,1-.13-.31l-.64-12.68v-.12a.36.36,0,0,1,.14-.27A.4.4,0,0,1,99,59a.41.41,0,0,1,.28.11A.53.53,0,0,1,99.38,59.41Z"/><path class="cls-3" d="M107.08,63.71a3.89,3.89,0,0,1,.58.18h0l.08,0a.51.51,0,0,1,.26.17.4.4,0,0,1,.09.25.37.37,0,0,1-.12.29.39.39,0,0,1-.29.11.3.3,0,0,1-.13,0l-.15-.07a.16.16,0,0,1-.09,0,1.35,1.35,0,0,0-.24-.08,3.86,3.86,0,0,0-.49-.1H106a2.2,2.2,0,0,0-.61.12,2,2,0,0,0-.88.6A3.13,3.13,0,0,0,104,66a7.18,7.18,0,0,0-.3.89,10.33,10.33,0,0,0-.21,1.74v.66a.92.92,0,0,1,0,.16l.06.4a2.41,2.41,0,0,0,.1.43,2.13,2.13,0,0,0,.28.62,1.56,1.56,0,0,0,.71.63,2.7,2.7,0,0,0,.8.18H106l.25,0a1,1,0,0,0,.24,0l.37-.09a1.4,1.4,0,0,0,.29-.09l.11,0a.54.54,0,0,1,.25-.06.44.44,0,0,1,.29.11.38.38,0,0,1,.12.28.36.36,0,0,1-.09.26.46.46,0,0,1-.21.14l-.24.09-.19,0a2.19,2.19,0,0,1-.4.11h0a6,6,0,0,1-.9.14h-.49l-.19,0-.4-.07a3,3,0,0,1-.64-.25,2.7,2.7,0,0,1-.63-.49,3,3,0,0,1-.45-.72,2.85,2.85,0,0,1-.24-.69c-.06-.3-.11-.6-.14-.89v-.85a12.83,12.83,0,0,1,.17-1.49,6.43,6.43,0,0,1,.47-1.49,3.64,3.64,0,0,1,.4-.71,3.06,3.06,0,0,1,.64-.66,2.41,2.41,0,0,1,.59-.35,2.67,2.67,0,0,1,.93-.24h.55l.15,0,.23,0,.2,0Z"/><path class="cls-3" d="M110.84,60.79a.54.54,0,0,1-.14.38.47.47,0,0,1-.36.16.45.45,0,0,1-.28-.09.65.65,0,0,1-.2-.29s0,0,0-.05v-.22a.52.52,0,0,1,.17-.33.52.52,0,0,1,.32-.11.47.47,0,0,1,.38.17A.54.54,0,0,1,110.84,60.79Zm0,2.47.41,8.87a.39.39,0,0,1-.13.32.45.45,0,0,1-.28.11.41.41,0,0,1-.28-.11.52.52,0,0,1-.12-.32l-.4-8.95a.41.41,0,0,1,.4-.36.38.38,0,0,1,.28.12A.48.48,0,0,1,110.84,63.26Z"/><path class="cls-3" d="M114.76,65.07l-.06,1v1.9c0,.24,0,.53.08.85a6.32,6.32,0,0,0,.18,1,4.94,4.94,0,0,0,.33,1,1.91,1.91,0,0,0,.54.73,1.17,1.17,0,0,0,.8.28,1.64,1.64,0,0,0,.42-.06,1.19,1.19,0,0,0,.42-.21,1.76,1.76,0,0,0,.42-.45,2.84,2.84,0,0,0,.25-.49,5.65,5.65,0,0,0,.42-1.43l.09-.64c0-.26,0-.52.07-.79V66.46l0-.77a.51.51,0,0,1,.15-.27.43.43,0,0,1,.26-.09.39.39,0,0,1,.28.12.42.42,0,0,1,.12.33.1.1,0,0,0,0,0V66a.19.19,0,0,1,0,.08s0,0,0,.06,0,0,0,0v.17l.32,5.42a.43.43,0,0,1-.13.32.4.4,0,0,1-.27.11.42.42,0,0,1-.24-.07.44.44,0,0,1-.16-.23,1.94,1.94,0,0,1,0-.24v-.11a.08.08,0,0,1,0,0c0-.27,0-.54,0-.8v0a3.41,3.41,0,0,1-1,1.41,2.19,2.19,0,0,1-1.35.45,2.07,2.07,0,0,1-1.3-.45,3.16,3.16,0,0,1-.93-1.38,7.46,7.46,0,0,1-.35-1.35A10.63,10.63,0,0,1,113.9,68l0-.75v-1l0-.48c0-.09,0-.17,0-.26v0c0-.1,0-.2,0-.3a.78.78,0,0,0,0-.16.45.45,0,0,1,.12-.33.41.41,0,0,1,.28-.11.36.36,0,0,1,.3.14A.45.45,0,0,1,114.76,65.07Z"/><path class="cls-3" d="M123.65,63.27v2.26a4.73,4.73,0,0,1,.56-1.1,2.61,2.61,0,0,1,.77-.72,1.87,1.87,0,0,1,1-.26,1.72,1.72,0,0,1,1.28.54,3.72,3.72,0,0,1,.84,1.49l0-.07a1.59,1.59,0,0,1,.12-.27,3.6,3.6,0,0,1,.2-.39,2.51,2.51,0,0,1,.34-.42,2.89,2.89,0,0,1,.25-.24,1.23,1.23,0,0,1,.25-.17,2.3,2.3,0,0,1,1-.31h.38a2.15,2.15,0,0,1,.34,0l.21.07a1.59,1.59,0,0,1,.27.12,2.36,2.36,0,0,1,.76.78,4,4,0,0,1,.41.9,8,8,0,0,1,.29,1.27c.06.43.11.87.13,1.3v1.67a2.44,2.44,0,0,1,0,.27c0,.17,0,.34,0,.51s0,.09,0,.14c0,.48-.08,1-.15,1.46a.14.14,0,0,1,0,.06.25.25,0,0,1,0,.07.37.37,0,0,1-.15.13.41.41,0,0,1-.18,0,.52.52,0,0,1-.21-.07.32.32,0,0,1-.16-.2.13.13,0,0,1,0-.06s0,0,0,0V72c.06-.39.09-.78.12-1.18a1.63,1.63,0,0,1,0-.31V70.2a.09.09,0,0,1,0,0V69.9a0,0,0,0,0,0,0v-.06s0-.07,0-.13V68.55l0-.38a12.26,12.26,0,0,0-.22-1.81,3.93,3.93,0,0,0-.64-1.53l-.12-.13-.13-.1a1,1,0,0,0-.32-.16,1.22,1.22,0,0,0-.32,0,1.53,1.53,0,0,0-.8.19,1.91,1.91,0,0,0-.57.53,2.89,2.89,0,0,0-.36.75,5.11,5.11,0,0,0-.2.88q0,.1,0,.27l0,.31a.75.75,0,0,0,0,.16v.27l0,.51,0,.63v1a.32.32,0,0,1-.13.28.38.38,0,0,1-.28.12.43.43,0,0,1-.22-.07.36.36,0,0,1-.16-.2.13.13,0,0,0,0-.06v0h0v-.12l-.08-1v-1l0-.14c0-.17,0-.34-.07-.5a9.15,9.15,0,0,0-.29-1.36,3.46,3.46,0,0,0-.56-1.12,1.07,1.07,0,0,0-.14-.16l-.14-.1a.86.86,0,0,0-.41-.15h-.25a1.1,1.1,0,0,0-.67.33,2.29,2.29,0,0,0-.48.63,4.23,4.23,0,0,0-.26.57,8.34,8.34,0,0,0-.37,1.27,18,18,0,0,0-.39,3.27l0,.57V72.2a.41.41,0,0,1-.15.28.46.46,0,0,1-.25.08.36.36,0,0,1-.28-.12.48.48,0,0,1-.13-.28l0-7.24V63.26A.35.35,0,0,1,123,63a.4.4,0,0,1,.25-.09.43.43,0,0,1,.26.09A.4.4,0,0,1,123.65,63.27Z"/><path class="cls-3" d="M105.83,78.91l.32,0a1.84,1.84,0,0,1,.84.51,2.75,2.75,0,0,1,.55.82,2.65,2.65,0,0,1,.23.78c0,.05,0,.08,0,.12a.49.49,0,0,1,0,.12v.28a4.14,4.14,0,0,1-.35,1.37,8.18,8.18,0,0,1-.8,1.38,11.8,11.8,0,0,1-1.16,1.38,18.32,18.32,0,0,1-1.36,1.3L107,87a.27.27,0,0,1,.19.07.25.25,0,0,1,0,.31.19.19,0,0,1-.13.1h0l-3.62,0a.24.24,0,0,1-.22-.25.31.31,0,0,1,0-.08.18.18,0,0,1,.06-.09l.09-.07,0,0,.14-.11.06,0c.4-.34.81-.71,1.22-1.12a13.86,13.86,0,0,0,1.12-1.23,8.84,8.84,0,0,0,1-1.48,4,4,0,0,0,.42-1.48v-.21a2.6,2.6,0,0,0-.07-.45,2.41,2.41,0,0,0-.08-.25,2.78,2.78,0,0,0-.61-.9,1.21,1.21,0,0,0-.8-.3,1.84,1.84,0,0,0-.33,0,1.31,1.31,0,0,0-.28.09l-.26.12-.16.09,0,0a4.07,4.07,0,0,0-.72.58.29.29,0,0,1-.08,0h-.08a.22.22,0,0,1-.17-.07.24.24,0,0,1,0-.3.36.36,0,0,1,.07-.1l.1-.08h0l0,0,.18-.16a3.73,3.73,0,0,1,.71-.46,2.35,2.35,0,0,1,.94-.27Z"/><path class="cls-3" d="M112.05,80.68c0,.15.09.31.13.47s.08.42.11.64a1.26,1.26,0,0,1,0,.28.58.58,0,0,1,0,.1c0,.06,0,.14,0,.22a1.94,1.94,0,0,0,0,.24c0,.07,0,.13,0,.16V84a9.2,9.2,0,0,1-.12,1,6.76,6.76,0,0,1-.24,1,4.79,4.79,0,0,1-.23.59,3,3,0,0,1-.32.52,1.88,1.88,0,0,1-.43.37,1.09,1.09,0,0,1-.54.14,1.15,1.15,0,0,1-.55-.14,1.52,1.52,0,0,1-.44-.37A3.5,3.5,0,0,1,109,86,6.78,6.78,0,0,1,108.7,85a9.38,9.38,0,0,1-.12-1V82.71c0-.34.06-.69.11-1a7.85,7.85,0,0,1,.25-1,4,4,0,0,1,.24-.6,2.58,2.58,0,0,1,.34-.5,1.58,1.58,0,0,1,.43-.35,1.08,1.08,0,0,1,.54-.13,1.12,1.12,0,0,1,.55.14,1.37,1.37,0,0,1,.43.37,2.75,2.75,0,0,1,.34.52A5.36,5.36,0,0,1,112.05,80.68Zm-.41.35-.09-.29a2.93,2.93,0,0,0-.16-.39,1.87,1.87,0,0,0-.22-.39,1.42,1.42,0,0,0-.3-.3.66.66,0,0,0-.76,0,1.64,1.64,0,0,0-.3.29,2.88,2.88,0,0,0-.22.38,2.93,2.93,0,0,0-.16.39q-.06.18-.09.3a9,9,0,0,0-.27,1.76v1.07a8.63,8.63,0,0,0,.28,1.8c0,.08.05.17.09.3s.1.25.16.39a2.22,2.22,0,0,0,.23.39,1.27,1.27,0,0,0,.3.31.68.68,0,0,0,.39.13.59.59,0,0,0,.36-.13,1.54,1.54,0,0,0,.3-.32,3,3,0,0,0,.21-.4,1.86,1.86,0,0,0,.15-.38,1.73,1.73,0,0,0,.08-.26,8.76,8.76,0,0,0,.28-1.74V82.81s0-.08,0-.16a2.32,2.32,0,0,0,0-.24,1.83,1.83,0,0,1,0-.21c0-.06,0-.09,0-.1v0c0-.12,0-.24,0-.35S111.7,81.27,111.64,81Z"/><path class="cls-3" d="M98.86,160.72l.11,5.34H99l.56.05a3.74,3.74,0,0,1,.52.09l0,0h0a.22.22,0,0,1,.07.09.31.31,0,0,1,0,.08.26.26,0,0,1-.07.17.25.25,0,0,1-.16.06H100l-.1,0-.07,0h0l-.78-.07h0l0,1.85a.24.24,0,0,1-.07.18.25.25,0,0,1-.31,0,.22.22,0,0,1-.07-.16l0-1.91-.59,0-.92,0H95.75l-.06,0a.28.28,0,0,1-.11-.08.19.19,0,0,1,0-.11v0s0,0,0,0a.09.09,0,0,1,0,0c.17-.34.35-.68.54-1l.18-.35a.08.08,0,0,0,0,0h0l0,0,0-.09,0-.08a.25.25,0,0,1,0-.07l0-.09a.8.8,0,0,0,.08-.16.05.05,0,0,0,0-.05l0-.07h0v0l0-.11s0,0,0,0h0l.25-.49.13-.24.17-.31s0,0,0,0a.05.05,0,0,1,0,0s0,0,0,0l0,0h0v0l0-.07a.35.35,0,0,0,.07-.12l.09-.18,0-.05,0,0,0-.07.1-.19,0-.08.09-.17c.17-.33.33-.65.51-1a.19.19,0,0,1,.09-.09l.11,0a.23.23,0,0,1,.16.06A.18.18,0,0,1,98.86,160.72ZM98.5,166l-.08-4.39L96.15,166H97l1,0Z"/><path class="cls-3" d="M104.05,162.13l.12.44a5.78,5.78,0,0,1,.11.6,2.17,2.17,0,0,1,0,.25.58.58,0,0,0,0,.1,1.68,1.68,0,0,0,0,.2,1.5,1.5,0,0,0,0,.22c0,.07,0,.12,0,.15v1.09c0,.32-.06.64-.11,1a6.9,6.9,0,0,1-.22,1,3.49,3.49,0,0,1-.22.53,2.22,2.22,0,0,1-.3.49,1.39,1.39,0,0,1-.39.34,1,1,0,0,1-.51.13,1.06,1.06,0,0,1-.5-.12,1.37,1.37,0,0,1-.41-.35,2.33,2.33,0,0,1-.31-.48,3.71,3.71,0,0,1-.22-.55,5.83,5.83,0,0,1-.24-1c0-.33-.09-.66-.11-1V164a7.84,7.84,0,0,1,.11-1,6.48,6.48,0,0,1,.22-1,4.68,4.68,0,0,1,.23-.56,2.18,2.18,0,0,1,.31-.46,1.42,1.42,0,0,1,.41-.33,1,1,0,0,1,.49-.12,1,1,0,0,1,.52.13,1.42,1.42,0,0,1,.4.34,3,3,0,0,1,.31.48A3.83,3.83,0,0,1,104.05,162.13Zm-.38.33c0-.07,0-.16-.08-.27l-.14-.36a2.12,2.12,0,0,0-.21-.36,1.48,1.48,0,0,0-.28-.28.64.64,0,0,0-.36-.11.56.56,0,0,0-.35.11,1.15,1.15,0,0,0-.27.27,2.5,2.5,0,0,0-.21.35q-.09.19-.15.36a2.55,2.55,0,0,0-.08.28,7.16,7.16,0,0,0-.25,1.64v1a8.05,8.05,0,0,0,.26,1.67l.08.27a2.75,2.75,0,0,0,.15.36,2.22,2.22,0,0,0,.21.37,1.11,1.11,0,0,0,.28.29.6.6,0,0,0,.36.12A.52.52,0,0,0,103,168a1.31,1.31,0,0,0,.27-.3,2.22,2.22,0,0,0,.21-.37l.14-.35c0-.11.06-.19.07-.24a8.26,8.26,0,0,0,.25-1.62V164c0-.07,0-.14,0-.22a1.54,1.54,0,0,1,0-.19.58.58,0,0,1,0-.1v0c0-.11,0-.21,0-.32S103.73,162.68,103.67,162.46Z"/><path class="cls-3" d="M105.66,168.36a.27.27,0,0,1,.11,0,.36.36,0,0,1,.09.08.24.24,0,0,1,.06.11.22.22,0,0,1,0,.11.45.45,0,0,1-.09.25.61.61,0,0,1-.16.13l-.17,0a.56.56,0,0,1-.27-.08.44.44,0,0,1-.2-.26v-.12a.34.34,0,0,1,.1-.2.31.31,0,0,1,.18-.09.55.55,0,0,1,.18,0h.16Z"/><path class="cls-3" d="M109.8,162.13l.12.44c0,.2.08.39.11.6a2.13,2.13,0,0,1,0,.25.58.58,0,0,1,0,.1,1.12,1.12,0,0,1,0,.2c0,.08,0,.15,0,.22a1,1,0,0,1,0,.15v1.09c0,.32,0,.64-.1,1a7,7,0,0,1-.23,1,3.44,3.44,0,0,1-.21.53,3.37,3.37,0,0,1-.3.49,1.42,1.42,0,0,1-.4.34,1,1,0,0,1-.5.13,1.07,1.07,0,0,1-.51-.12,1.5,1.5,0,0,1-.41-.35,2.83,2.83,0,0,1-.31-.48,3.71,3.71,0,0,1-.22-.55,7,7,0,0,1-.23-1c0-.33-.09-.66-.11-1V164c0-.32,0-.64.1-1a6.51,6.51,0,0,1,.23-1,3.46,3.46,0,0,1,.23-.56,2.18,2.18,0,0,1,.31-.46,1.38,1.38,0,0,1,.4-.33,1.06,1.06,0,0,1,.5-.12,1,1,0,0,1,.51.13,1.42,1.42,0,0,1,.4.34,2.46,2.46,0,0,1,.31.48A3.88,3.88,0,0,1,109.8,162.13Zm-.38.33q0-.11-.09-.27a2,2,0,0,0-.14-.36,2.12,2.12,0,0,0-.21-.36,1.07,1.07,0,0,0-.28-.28.61.61,0,0,0-.35-.11.54.54,0,0,0-.35.11,1,1,0,0,0-.28.27,2.5,2.5,0,0,0-.21.35,2.4,2.4,0,0,0-.14.36,2.9,2.9,0,0,0-.09.28,7.73,7.73,0,0,0-.24,1.64v1a7.44,7.44,0,0,0,.26,1.67,1.5,1.5,0,0,0,.08.27c0,.12.09.24.14.36a1.72,1.72,0,0,0,.22.37,1,1,0,0,0,.28.29.57.57,0,0,0,.35.12.55.55,0,0,0,.35-.12,1.31,1.31,0,0,0,.27-.3,2.18,2.18,0,0,0,.2-.37c.06-.13.1-.24.14-.35a1.67,1.67,0,0,0,.07-.24,8.28,8.28,0,0,0,.26-1.62v-1a1,1,0,0,0,0-.15,1.8,1.8,0,0,0,0-.22c0-.07,0-.14,0-.19a.58.58,0,0,0,0-.1v0c0-.11,0-.21,0-.32S109.47,162.68,109.42,162.46Z"/><path class="cls-3" d="M115.89,161.06a.29.29,0,0,1,0,.09c-.16.35-.32.69-.47,1s-.25.5-.36.76c-.29.63-.59,1.25-.88,1.88l-.31.66-.57,1.22a1,1,0,0,1,0,.1l-.1.22a.67.67,0,0,0-.06.12l-.08.17a.33.33,0,0,0,0,.12.41.41,0,0,0,0,.09.8.8,0,0,1-.08.16c-.1.23-.21.46-.32.69a.2.2,0,0,1-.09.09l-.11,0a.41.41,0,0,1-.12,0,.2.2,0,0,1-.09-.11s0,0,0,0h0v-.08s0,0,0-.05l.51-1.1.27-.56c.16-.36.33-.72.5-1.08l.3-.65.41-.87c.13-.29.26-.58.4-.87l.19-.42.62-1.31h0l-4.27.11h0a.38.38,0,0,1-.13,0,.23.23,0,0,1-.1-.12v-.14a.23.23,0,0,1,.09-.11.21.21,0,0,1,.12-.05l4.64-.12a.29.29,0,0,1,.18.07A.21.21,0,0,1,115.89,161.06Z"/><path class="cls-3" d="M118.28,160.24a1.58,1.58,0,0,1,.82.27,1.75,1.75,0,0,1,.42.4,2,2,0,0,1,.37.89v0a1.49,1.49,0,0,0,0,.17,1,1,0,0,1,0,.17v.26c0,.12,0,.23,0,.35a2.07,2.07,0,0,1-.1.33,2,2,0,0,1-.59.81,4.94,4.94,0,0,1-.57.4l-.12.08.29.13a1.83,1.83,0,0,1,.55.48,2.77,2.77,0,0,1,.34.57,4,4,0,0,1,.21.57c0,.13.06.26.08.4a1,1,0,0,1,0,.23s0,0,0,.06v.26a3.18,3.18,0,0,1-.06.43,2.23,2.23,0,0,1-.16.43,2.19,2.19,0,0,1-.31.43,1.86,1.86,0,0,1-.64.42,2,2,0,0,1-.59.13H118a1.65,1.65,0,0,1-.68-.2,1.42,1.42,0,0,1-.6-.57v0a1.09,1.09,0,0,1-.08-.15,2.18,2.18,0,0,1-.14-.6v-.5l0-.38.06-.38a3.49,3.49,0,0,1,.28-.78,2.73,2.73,0,0,1,.62-.78,1.79,1.79,0,0,1-.37-.18,1.26,1.26,0,0,1-.32-.33l0,0-.05-.07s0,0,0,0l0-.09a2.57,2.57,0,0,1-.17-.84v-.64a3.51,3.51,0,0,1,.21-1,1.91,1.91,0,0,1,.36-.6,1.59,1.59,0,0,1,.58-.41,1.36,1.36,0,0,1,.47-.12Zm.54.64a1,1,0,0,0-.3-.14,1.1,1.1,0,0,0-.31,0,1,1,0,0,0-.33.06,1.13,1.13,0,0,0-.5.38,1.59,1.59,0,0,0-.28.53,3,3,0,0,0-.11.54.34.34,0,0,0,0,.1v.63a2,2,0,0,0,.14.72.56.56,0,0,0,.07.13.8.8,0,0,0,.28.27l.31.12h.06l.07,0h0l.09-.06.21-.14.24-.15.11-.08a2.86,2.86,0,0,0,.3-.22,1.49,1.49,0,0,0,.36-.41,1.55,1.55,0,0,0,.2-.51s0-.1,0-.19,0-.15,0-.2a2.09,2.09,0,0,0-.06-.47,1.42,1.42,0,0,0-.2-.5A1.2,1.2,0,0,0,118.82,160.88Zm-.72,3.85H118l0,0-.08.06-.07.07-.06,0-.13.14a1.14,1.14,0,0,0-.15.17l-.1.14-.09.14-.12.24c0,.08,0,.15-.08.22s-.05.18-.07.27,0,.22,0,.33l0,.38v.41a1.29,1.29,0,0,0,.11.46.36.36,0,0,0,0,.09l0,0a1,1,0,0,0,.44.41,1.16,1.16,0,0,0,.49.13h.1a1.37,1.37,0,0,0,.54-.11,1.27,1.27,0,0,0,.49-.35,1.46,1.46,0,0,0,.32-.62c0-.13,0-.27,0-.4v-.12a3.11,3.11,0,0,0-.23-1,2.28,2.28,0,0,0-.28-.53,1.48,1.48,0,0,0-.48-.45l-.06,0-.1,0Z"/></g></svg>