<svg xmlns="http://www.w3.org/2000/svg" viewBox="0 0 222.75 220.21"><defs><style>.cls-1{fill:#fd9257;}.cls-2{fill:#fff7c2;}</style></defs><g id="hills"><ellipse class="cls-1" cx="90.33" cy="93.77" rx="10.54" ry="21.86" transform="translate(-38.53 75.1) rotate(-37.83)"/><ellipse class="cls-1" cx="90.33" cy="127.56" rx="10.54" ry="21.86" transform="translate(-59.25 82.2) rotate(-37.83)"/><ellipse class="cls-1" cx="90.33" cy="162.1" rx="10.54" ry="21.86" transform="translate(-80.43 89.46) rotate(-37.83)"/><ellipse class="cls-1" cx="123.04" cy="93.4" rx="21.86" ry="10.54" transform="translate(-26.19 133.31) rotate(-52.17)"/><ellipse class="cls-1" cx="106.96" cy="66.05" rx="10.54" ry="21.86"/><ellipse class="cls-1" cx="123.04" cy="127.19" rx="21.86" ry="10.54" transform="translate(-52.88 146.38) rotate(-52.17)"/><ellipse class="cls-1" cx="123.04" cy="161.72" rx="21.86" ry="10.54" transform="translate(-80.16 159.73) rotate(-52.17)"/><path class="cls-2" d="M107.81,208.41a94.65,94.65,0,1,1,94.65-94.64A94.74,94.74,0,0,1,107.81,208.41Zm0-174.29a79.65,79.65,0,1,0,79.65,79.65A79.74,79.74,0,0,0,107.81,34.12Z"/><rect class="cls-2" x="24.18" y="114.48" width="168.19" height="15" transform="translate(-54.17 107.3) rotate(-43.24)"/></g></svg>