<svg xmlns="http://www.w3.org/2000/svg" viewBox="0 0 222.75 220.21"><defs><style>.cls-1{fill:#fff7c2;}.cls-2{fill:#ffc05a;}.cls-3{fill:#fcff94;}.cls-4{fill:#ede25f;}.cls-5{font-size:18px;}.cls-12,.cls-5{font-family:YouareaTOY, You are a TOY;}.cls-6{letter-spacing:0.02em;}.cls-7{letter-spacing:0.03em;}.cls-8{letter-spacing:0.03em;}.cls-9{letter-spacing:0.1em;}.cls-10{letter-spacing:0.06em;}.cls-11{letter-spacing:0.07em;}.cls-12{font-size:113px;}</style></defs><g id="hills"><path class="cls-1" d="M109.27,206.88a94.51,94.51,0,1,1,94.51-94.51A94.62,94.62,0,0,1,109.27,206.88Zm0-174a79.51,79.51,0,1,0,79.51,79.51A79.6,79.6,0,0,0,109.27,32.86Z"/><rect class="cls-2" x="44.97" y="49.46" width="128.61" height="128.61" rx="50.18"/><path class="cls-3" d="M134,87.22,96.17,152.75A37.87,37.87,0,0,0,134,87.22Z"/><path class="cls-4" d="M113.77,160.09a41,41,0,0,1-19-4.68L92,154,133,83l2.64,1.67a40.87,40.87,0,0,1-21.85,75.41Zm-13.37-8.66a34.38,34.38,0,0,0,13.37,2.66A34.87,34.87,0,0,0,135,91.54Z"/><path class="cls-4" d="M120.14,145.5a4.64,4.64,0,0,1-9.27,0c0-2.56,4.49-16.43,5-13.92C116.44,134.4,120.14,142.94,120.14,145.5Z"/><path class="cls-4" d="M131.15,135.92a4.64,4.64,0,0,1-6.84,6.26c-1.72-1.89-7.77-15.15-5.7-13.64C120.94,130.23,129.43,134,131.15,135.92Z"/><path class="cls-4" d="M140.31,108.26a4.63,4.63,0,1,0-5.73-7.28c-2,1.58-10.13,13.69-7.84,12.54C129.31,112.22,138.3,109.85,140.31,108.26Z"/><path class="cls-4" d="M139.25,121.63a4.63,4.63,0,1,0-.53-9.25c-2.55.14-16.14,5.41-13.61,5.77C128,118.57,136.69,121.78,139.25,121.63Z"/><path class="cls-4" d="M132.48,133.51a4.64,4.64,0,0,0,4.35-8.19c-2.26-1.2-16.61-3.74-14.64-2.11C124.42,125,130.22,132.31,132.48,133.51Z"/><text class="cls-5" transform="translate(69.53 80.69)"><tspan class="cls-6">V</tspan><tspan class="cls-7" x="6.67" y="0">i</tspan><tspan class="cls-8" x="9.47" y="0">t</tspan><tspan class="cls-9" x="16.53" y="0">a</tspan><tspan class="cls-10" x="23.54" y="0">m</tspan><tspan class="cls-11" x="33.63" y="0">i</tspan><tspan x="37.19" y="0">n</tspan></text><text class="cls-12" transform="translate(74.49 157.09)">C</text></g></svg>