<svg xmlns="http://www.w3.org/2000/svg" viewBox="0 0 222.75 220.21"><defs><style>.cls-1{fill:#fff7c2;}.cls-2{fill:#ffc05a;}.cls-3{fill:#fcff94;}.cls-4{fill:#ede25f;}</style></defs><g id="hills"><path class="cls-1" d="M109.27,206.88a94.51,94.51,0,1,1,94.51-94.51A94.62,94.62,0,0,1,109.27,206.88Zm0-174a79.51,79.51,0,1,0,79.51,79.51A79.6,79.6,0,0,0,109.27,32.86Z"/><rect class="cls-2" x="44.97" y="49.46" width="128.61" height="128.61" rx="50.18"/><path class="cls-3" d="M134,87.22,96.17,152.75A37.87,37.87,0,0,0,134,87.22Z"/><path class="cls-4" d="M113.77,160.09a41,41,0,0,1-19-4.68L92,154,133,83l2.64,1.67a40.87,40.87,0,0,1-21.85,75.41Zm-13.37-8.66a34.38,34.38,0,0,0,13.37,2.66A34.87,34.87,0,0,0,135,91.54Z"/><path class="cls-4" d="M120.14,145.5a4.64,4.64,0,0,1-9.27,0c0-2.56,4.49-16.43,5-13.92C116.44,134.4,120.14,142.94,120.14,145.5Z"/><path class="cls-4" d="M131.15,135.92a4.64,4.64,0,0,1-6.84,6.26c-1.72-1.89-7.77-15.15-5.7-13.64C120.94,130.23,129.43,134,131.15,135.92Z"/><path class="cls-4" d="M140.31,108.26a4.63,4.63,0,1,0-5.73-7.28c-2,1.58-10.13,13.69-7.84,12.54C129.31,112.22,138.3,109.85,140.31,108.26Z"/><path class="cls-4" d="M139.25,121.63a4.63,4.63,0,1,0-.53-9.25c-2.55.14-16.14,5.41-13.61,5.77C128,118.57,136.69,121.78,139.25,121.63Z"/><path class="cls-4" d="M132.48,133.51a4.64,4.64,0,0,0,4.35-8.19c-2.26-1.2-16.61-3.74-14.64-2.11C124.42,125,130.22,132.31,132.48,133.51Z"/><path d="M70.17,69c.09.5.19,1,.29,1.49,0,.19.08.38.13.57.16.85.33,1.71.5,2.57l.51,2.58c.1.55.21,1.1.32,1.65.07.3.13.61.19.92l.56-2.56c0-.11,0-.23.08-.34l.48-2.23.57-2.56c0-.16.06-.31.1-.47L74,70.3l0-.1c0-.13.05-.27.08-.4.06-.32.14-.65.22-1a.23.23,0,0,1,.09-.11.28.28,0,0,1,.13-.07h.07a.3.3,0,0,1,.23.09.31.31,0,0,1,.09.22,1.71,1.71,0,0,1,0,.24c0,.15-.06.29-.1.44s0,.18-.05.25c-.14.59-.27,1.19-.4,1.79l0,.24c-.22,1-.43,2-.65,2.94-.06.28-.12.55-.19.83-.15.71-.31,1.41-.46,2.12l-.09.4,0,.1-.06.27,0,.17c0,.12-.05.24-.08.36l-.07.33-.21.92v0s0,0,0,0a.32.32,0,0,1-.14.14.3.3,0,0,1-.15,0,.32.32,0,0,1-.21-.08.36.36,0,0,1-.12-.22h0a.19.19,0,0,0,0-.08L71.51,79l-.24-1.22-.4-2-.18-.93-.58-3-.24-1.2-.24-1.21-.1-.54v-.07a.31.31,0,0,1,.11-.22.37.37,0,0,1,.2-.07.28.28,0,0,1,.23.11A.63.63,0,0,1,70.17,69Z"/><path d="M77,70.6a.41.41,0,0,1-.11.3.37.37,0,0,1-.28.13.41.41,0,0,1-.22-.07.5.5,0,0,1-.16-.23.06.06,0,0,1,0,0,0,0,0,0,1,0,0v-.14a.37.37,0,0,1,.38-.35.36.36,0,0,1,.3.14A.39.39,0,0,1,77,70.6Zm0,1.94.32,6.94a.3.3,0,0,1-.1.25.33.33,0,0,1-.22.09.31.31,0,0,1-.22-.09.33.33,0,0,1-.09-.25l-.32-7a.31.31,0,0,1,.12-.21.31.31,0,0,1,.2-.07.29.29,0,0,1,.21.09A.34.34,0,0,1,77,72.54Z"/><path d="M83.69,73.66a.33.33,0,0,1-.06.19.31.31,0,0,1-.19.12l-1.1.2-.78.13-.6.12v1.11c0,.35.06.7.1,1.06a10.1,10.1,0,0,0,.21,1.07c0,.15.09.3.14.45l.12.27,0,.07,0,.07a1.21,1.21,0,0,0,.56.51,1.4,1.4,0,0,0,1.26,0,2.46,2.46,0,0,0,.63-.45.36.36,0,0,0,.08-.09l.08-.08a.19.19,0,0,1,.11-.07h.1a.3.3,0,0,1,.23.09.29.29,0,0,1,.09.22.41.41,0,0,1,0,.17,2.19,2.19,0,0,1-.21.23l-.24.22a2.55,2.55,0,0,1-.73.41,2.27,2.27,0,0,1-.71.13,2.14,2.14,0,0,1-.92-.22,2,2,0,0,1-.68-.54L81.16,79a.52.52,0,0,0-.07-.11,2.1,2.1,0,0,1-.13-.26l0-.06a3,3,0,0,1-.15-.38,8.42,8.42,0,0,1-.29-1.28c-.06-.43-.1-.85-.12-1.27l0-.42v-.64l-.69.13-.32,0a.32.32,0,0,1-.23-.09.36.36,0,0,1-.08-.23.41.41,0,0,1,0-.19.31.31,0,0,1,.19-.12l1.08-.2v-.54l0-.9,0-.2V72l0-.33,0-.34s0-.07,0-.1v-.09s0-.06,0-.09a.28.28,0,0,0,0-.09v-.13l0-.11a.33.33,0,0,1,.1-.26.3.3,0,0,1,.22-.1.3.3,0,0,1,.23.11.35.35,0,0,1,.08.22v.1c0,.08,0,.2,0,.33s0,.26,0,.37c0,.33,0,.68-.07,1,0,0,0,.07,0,.11l0,1v.06l.17,0,.82-.15,1-.17a4,4,0,0,1,.48-.08.32.32,0,0,1,.23.09A.31.31,0,0,1,83.69,73.66Z"/><path d="M90.15,72.65a.25.25,0,0,1,0,.13.13.13,0,0,1-.05.07,0,0,0,0,1,0,0l0,0a.21.21,0,0,0,0,.06.28.28,0,0,1,0,.09l.11,6.25v0a.32.32,0,0,1-.09.23.29.29,0,0,1-.23.1.31.31,0,0,1-.2-.07.31.31,0,0,1-.11-.22l0-.65,0,.07a1.74,1.74,0,0,1-.11.18,2.18,2.18,0,0,1-.48.48,1.71,1.71,0,0,1-.54.27,1.69,1.69,0,0,1-.53.09,1.44,1.44,0,0,1-.58-.13,1.59,1.59,0,0,1-.31-.17,1.38,1.38,0,0,1-.3-.29,2.09,2.09,0,0,1-.21-.3,3.56,3.56,0,0,1-.35-1,.13.13,0,0,0,0-.06.68.68,0,0,1,0-.14c0-.05,0-.12,0-.19s0-.13,0-.18a.58.58,0,0,0,0-.1v-1A6.62,6.62,0,0,1,86.27,75a4,4,0,0,1,.61-1.31,2.81,2.81,0,0,1,.44-.48,2.71,2.71,0,0,1,.49-.38,3.49,3.49,0,0,1,1.63-.49h.32a.42.42,0,0,1,.29.09A.3.3,0,0,1,90.15,72.65Zm-.63.32h0l-.27,0a3.08,3.08,0,0,0-1.11.39,3,3,0,0,0-.43.34,2.28,2.28,0,0,0-.35.43,3.6,3.6,0,0,0-.49,1.11,6,6,0,0,0-.15,1.11v.88a.13.13,0,0,0,0,.06v.11a.53.53,0,0,1,0,.12,443227307022.35,443227307022.35,0,0,1,0,.16,4.56,4.56,0,0,0,.11.49,2.14,2.14,0,0,0,.25.53,1,1,0,0,0,.46.39.55.55,0,0,0,.17,0h.36l.16,0a.62.62,0,0,0,.2-.1h0a1.37,1.37,0,0,0,.42-.38,1.46,1.46,0,0,0,.23-.52c0-.2.1-.4.13-.6s0-.29.06-.43l0-.18,0-.35.06-.66,0-1V73A.64.64,0,0,1,89.52,73Z"/><path d="M93.74,72.55v1.76a3.77,3.77,0,0,1,.44-.85,1.8,1.8,0,0,1,.6-.57,1.46,1.46,0,0,1,1.75.21,2.83,2.83,0,0,1,.66,1.18.16.16,0,0,1,0-.06A1.8,1.8,0,0,1,97.3,74c0-.1.1-.2.16-.3a2,2,0,0,1,.27-.34l.2-.19a.72.72,0,0,1,.19-.12,1.7,1.7,0,0,1,.81-.25h.29a1.28,1.28,0,0,1,.27,0l.16.05a1,1,0,0,1,.21.09,1.84,1.84,0,0,1,.6.61,3.65,3.65,0,0,1,.33.7,9,9,0,0,1,.22,1c0,.34.08.68.1,1v1.31a1.62,1.62,0,0,1,0,.21c0,.13,0,.26,0,.39a.49.49,0,0,1,0,.12,9.14,9.14,0,0,1-.11,1.14.06.06,0,0,1,0,0l0,.06a.41.41,0,0,1-.13.1.23.23,0,0,1-.14,0,.32.32,0,0,1-.16-.06.28.28,0,0,1-.13-.15s0,0,0,0v-.13c.05-.3.07-.61.09-.92l0-.25V78a.06.06,0,0,1,0,0v-.2a0,0,0,0,0,0,0v0a.34.34,0,0,1,0-.09v-.89l0-.3A9.67,9.67,0,0,0,100.3,75a2.92,2.92,0,0,0-.5-1.19.28.28,0,0,0-.09-.1l-.1-.09a1,1,0,0,0-.25-.12l-.25,0a1.22,1.22,0,0,0-.63.15A1.43,1.43,0,0,0,98,74a2.32,2.32,0,0,0-.29.59,5,5,0,0,0-.16.69s0,.12,0,.21,0,.16,0,.24,0,.12,0,.13v.21l0,.4,0,.49v.82a.29.29,0,0,1-.09.22.33.33,0,0,1-.22.09.41.41,0,0,1-.17,0,.28.28,0,0,1-.13-.17.08.08,0,0,0,0,0v0h0v-.08l-.06-.8v-.82l0-.11c0-.13,0-.26,0-.39a6.47,6.47,0,0,0-.23-1.06,2.51,2.51,0,0,0-.44-.88.4.4,0,0,0-.1-.12.47.47,0,0,0-.12-.09.56.56,0,0,0-.31-.11h-.2a.91.91,0,0,0-.53.25,2,2,0,0,0-.37.5,4.63,4.63,0,0,0-.2.44,6,6,0,0,0-.29,1,14.79,14.79,0,0,0-.31,2.56l0,.44v1a.34.34,0,0,1-.12.22.35.35,0,0,1-.2.07.28.28,0,0,1-.21-.1.34.34,0,0,1-.1-.22l0-5.66v-1.3a.29.29,0,0,1,.11-.21.36.36,0,0,1,.2-.06.31.31,0,0,1,.2.07A.28.28,0,0,1,93.74,72.55Z"/><path d="M104,70.6a.46.46,0,0,1-.11.3.38.38,0,0,1-.29.13.44.44,0,0,1-.22-.07.57.57,0,0,1-.15-.23s0,0,0,0v-.17a.38.38,0,0,1,.13-.26.37.37,0,0,1,.25-.09.36.36,0,0,1,.3.14A.44.44,0,0,1,104,70.6Zm0,1.94.32,6.94a.31.31,0,0,1-.11.25.29.29,0,0,1-.21.09.29.29,0,0,1-.22-.09.38.38,0,0,1-.1-.25l-.31-7a.25.25,0,0,1,.12-.21.28.28,0,0,1,.19-.07.31.31,0,0,1,.22.09A.38.38,0,0,1,104,72.54Z"/><path d="M107.34,72.56l0,2a5,5,0,0,1,.38-.77,2.71,2.71,0,0,1,.65-.71l.19-.12a2,2,0,0,1,.6-.26h0l.19,0,.18,0H110a3.58,3.58,0,0,1,.43.08,1.73,1.73,0,0,1,.49.21,2.11,2.11,0,0,1,.5.42,3,3,0,0,1,.51.83,5.92,5.92,0,0,1,.37,1.52c0,.15,0,.31,0,.47l0,.28v1.28q0,.9-.18,1.8l0,0s0,0,0,0a.33.33,0,0,1-.13.11l-.13,0a.3.3,0,0,1-.17,0,.24.24,0,0,1-.13-.16,0,0,0,0,0,0,0v0h0v-.1a14.2,14.2,0,0,0,.19-1.71V76.51c0-.33,0-.66-.1-1a4.53,4.53,0,0,0-.26-1,3.29,3.29,0,0,0-.26-.54,1.86,1.86,0,0,0-.48-.49l-.24-.13-.22-.06-.25,0h-.28a1.54,1.54,0,0,0-.3,0,1.73,1.73,0,0,0-.36.15,2.1,2.1,0,0,0-.76.78,4.24,4.24,0,0,0-.38.9,7.43,7.43,0,0,0-.28,1.22c0,.4-.09.81-.11,1.21v.09h0v.73c0,.16,0,.32,0,.48v.63a.13.13,0,0,1,0,.06.24.24,0,0,1-.12.18.38.38,0,0,1-.18.06.33.33,0,0,1-.19-.06.29.29,0,0,1-.12-.19l0-.33v-.1l0-.58v-.68l-.09-5.32a.31.31,0,0,1,.11-.22.37.37,0,0,1,.2-.07.34.34,0,0,1,.2.08A.31.31,0,0,1,107.34,72.56Z"/><path d="M105.38,86a2,2,0,0,1-.46,1.21,2.14,2.14,0,0,1-1.36.77l-2-.05a31.61,31.61,0,0,0-4.14.49A25.34,25.34,0,0,0,90.51,91,20.72,20.72,0,0,0,84,96.68a24.58,24.58,0,0,0-4.22,8.77,40.72,40.72,0,0,0-1.36,9c0,.73-.05,1.69-.05,2.87s0,2.19.11,3c0,.48,0,.94.05,1.38a3.68,3.68,0,0,1,.06.66,46.17,46.17,0,0,0,1.21,7,25.62,25.62,0,0,0,3,7c.26.44.54.87.83,1.27a16.5,16.5,0,0,0,5.74,4.91A17.24,17.24,0,0,0,92.69,144a24.1,24.1,0,0,0,4.86.83l.14,0a.55.55,0,0,0,.19,0h2.43q1.48-.1,3-.33a7.52,7.52,0,0,0,1.27-.22,2.12,2.12,0,0,0,.44,0,2.93,2.93,0,0,1,1.11-.22,2,2,0,0,1,2,2,2.09,2.09,0,0,1-.33,1,2,2,0,0,1-1,.86,22.44,22.44,0,0,1-5.08.83.68.68,0,0,1-.27,0h-.33l-.17.06H97.38a26.38,26.38,0,0,1-6.12-1.11,21.19,21.19,0,0,1-6.12-3A21.89,21.89,0,0,1,79.67,139a25,25,0,0,1-2.48-4.69,33.75,33.75,0,0,1-1.49-4.75c-.22-.92-.41-1.82-.55-2.7s-.33-1.9-.44-2.82c0-.4-.08-.86-.11-1.38s-.06-1-.06-1.43l-.05-.61v-6.78l.11-2a42.68,42.68,0,0,1,1.76-9,29.71,29.71,0,0,1,4.75-9,22.59,22.59,0,0,1,4.27-4.25A25.77,25.77,0,0,1,90,86.74,28.84,28.84,0,0,1,100.86,84l2.32-.05a2.19,2.19,0,0,1,1.6.6A2,2,0,0,1,105.38,86Z"/></g></svg>