<svg xmlns="http://www.w3.org/2000/svg" viewBox="0 0 222.75 220.21"><defs><style>.cls-1{fill:#fff;}.cls-2{fill:#fff7c2;}</style></defs><g id="hills"><path class="cls-1" d="M137,176s-.56-13.48-.84-23.8c-.38-14.34,0-13.36-.28-25.88-.42-16.55-.63-24.83-2.24-31.49-1.43-5.9-2.8-8.8-6.18-21.53a70.23,70.23,0,0,1-2.51-16.83c0-1.39,0-2.54,0-3.31a3.34,3.34,0,0,0,2.51-1.52,2.32,2.32,0,0,0,.14-1.57c-.38-1.73-2.41-2.63-3.15-3a9.78,9.78,0,0,0-2.31-.68v-.06h-.34a9.67,9.67,0,0,0-1.55-.09c-1.94,0-4.79,0-8.39,0s-6.46,0-8.39,0a9.63,9.63,0,0,0-1.55.09h-.34v.06a9.78,9.78,0,0,0-2.31.68c-.75.33-2.77,1.23-3.16,3a2.34,2.34,0,0,0,.15,1.57,3.32,3.32,0,0,0,2.5,1.52c0,.77,0,1.92,0,3.31a70.37,70.37,0,0,1-2.5,16.83C92.84,86,91.47,88.89,90,94.79c-1.62,6.66-1.83,14.94-2.25,31.49-.32,12.52.1,11.54-.28,25.88-.27,10.32-.84,23.8-.84,23.8-.18-.3.37.61.6.88a2.83,2.83,0,0,0,2.11.62c7.48-.05,15,.1,22.44,0,7.48.1,15-.05,22.44,0a2.82,2.82,0,0,0,2.1-.62A8.28,8.28,0,0,0,137,176Z"/><path class="cls-2" d="M111.37,201.62a91.52,91.52,0,1,1,91.51-91.52A91.62,91.62,0,0,1,111.37,201.62Zm0-168a76.52,76.52,0,1,0,76.51,76.51A76.61,76.61,0,0,0,111.37,33.59Z"/><rect class="cls-2" x="30.75" y="110.52" width="162.14" height="15" transform="translate(-50.49 108.65) rotate(-43.24)"/></g></svg>