<svg id="Layer_1" data-name="Layer 1" xmlns="http://www.w3.org/2000/svg" viewBox="0 0 432.01 214.61"><defs><style>.cls-1{fill:#a5c539;}.cls-2{fill:none;stroke:#4fad55;stroke-miterlimit:10;stroke-width:3px;}</style></defs><rect id="Rectangle_16" data-name="Rectangle 16" class="cls-1" x="43.55" y="48.51" width="343.94" height="116.59" rx="10"/><path id="Path_348" data-name="Path 348" class="cls-2" d="M55.71,53.86c-13.66,19.7-14.53,45.25-14.92,69.22-.12,7-.19,14.23,2.51,20.68,6.41,15.36,25.3,20.54,41.8,22.73a394,394,0,0,0,45.28,3.37c12.45.21,24.92-.18,37.37-.76,22-1,43.94-2.66,65.88-4.3l116.2-8.66c11.76-.88,25.28-2.76,31.55-12.74,3.38-5.38,3.84-12,4.09-18.37a530.24,530.24,0,0,0-.61-54.23c-.35-5.65-.82-11.44-3.22-16.57a12.24,12.24,0,0,0-5.4-6.11,16.32,16.32,0,0,0-6.14-1.18q-82.43-5-165.09-2.65c-18.91.54-37.88,1.38-56.52,4.57-13.39,2.29-26.65,5.8-40.22,6.28-17.82.65-35.87-3.92-53.34-.39"/></svg>